# xmcd CD database file
#
# Track frame offsets:
#	150
#	182990
#	335902
#
# Disc length: 4785 seconds
#
# Revision: 1
# Processed by: cddbd v1.5.1PL0 Copyright (c) Steve Scherf et al.
# Submitted via: CDex 1.50beta10
#
DISCID=2b12af03
DTITLE=Charles Mingus - Jazz Festival, Nice July-20-72
DYEAR=1972
DGENRE=Jazz
TTITLE0=Fables Of Faubus
TTITLE1=Blues For Marie-Christine with Dizzy
TTITLE2=Pops When the Saints Go Marching In
EXTD=YEAR: 1972
EXTT0=
EXTT1=
EXTT2=
PLAYORDER=
